Patient4_TMGait_0pt4_02_left_11_GRF.mot
version=1
nRows=64
nColumns=19
inDegrees=no
endheader
time	F1x	F1y	F1z	M1x	M1y	M1z	F2x	F2y	F2z	M2x	M2y	M2z	EC1x	EC1y	EC1z	EC2x	EC2y	EC2z
14.7	-9.0038	11.5566	-2.9073	-3.6481	-1.6592	8.5066	-20.2022	735.6801	-50.573	289.301	66.076	837.8822	-0.0592	0.0182	-0.0073	-0.0462	0.0165	0.9585
14.7131	-6.0654	8.4139	-1.886	-2.6959	-1.2122	6.5018	-19.6379	745.1881	-53.5951	291.6346	68.2545	844.875	-0.0592	0.0182	-0.0073	-0.0462	0.0165	0.9585
14.7261	-3.5765	5.7948	-1.041	-1.9006	-0.81725	4.8459	-18.9434	754.5061	-56.7106	293.7405	70.468	851.6601	-0.0592	0.0182	-0.0073	-0.0462	0.0165	0.9585
14.7392	-1.6827	3.8448	-0.40403	-1.3047	-0.516	3.6328	-18.0916	762.8882	-59.7231	295.4056	72.5446	857.549	-0.0592	0.0182	-0.0073	-0.0462	0.0165	0.9585
14.7523	-0.37676	2.55	0.026985	-0.90219	-0.3078	2.8496	-17.0506	769.781	-62.4652	296.4946	74.3218	861.9522	-0.0592	0.0182	-0.0073	-0.0462	0.0165	0.9585
14.7654	0.41216	1.804	0.28972	-0.66092	-0.18594	2.4166	-15.7948	774.8358	-64.7677	296.9491	75.6308	864.4393	-0.0592	0.0182	-0.0073	-0.0462	0.0165	0.9585
14.7784	0.79584	1.4473	0.4289	-0.53539	-0.13369	2.2127	-14.3318	777.8685	-66.4888	296.7654	76.3326	864.7517	-0.0592	0.0182	-0.0073	-0.0462	0.0165	0.9585
14.7915	0.88317	1.3027	0.48557	-0.47369	-0.13308	2.1099	-12.6848	778.8279	-67.5349	295.9717	76.3393	862.7836	-0.0592	0.0182	-0.0073	-0.0462	0.0165	0.9585
14.8046	0.78146	1.1904	0.49823	-0.4211	-0.17135	1.9558	-10.8943	777.735	-67.8778	294.6039	75.6336	858.5251	-0.0592	0.0182	-0.0073	-0.0462	0.0165	0.9585
14.8176	0.56078	0.95618	0.49331	-0.33034	-0.24093	1.6095	-9.0142	774.6564	-67.5488	292.6973	74.2623	852.0288	-0.0592	0.0182	-0.0073	-0.0462	0.0165	0.9585
14.8307	0.2805	0.45467	0.49383	-0.15432	-0.34127	0.93013	-7.0811	769.7723	-66.629	290.3105	72.318	843.4869	-0.0592	0.0182	-0.0073	-0.0462	0.0165	0.9585
14.8438	-0.0053081	-0.43099	0.49932	0.14748	-0.45245	-0.20256	-5.1205	763.4013	-65.2602	287.5388	69.9511	833.2587	-0.0592	0.0182	-0.0073	-0.0462	0.0165	0.9585
14.8569	-0.25576	-1.7711	0.51544	0.60248	-0.56088	-1.8629	-3.1586	755.9956	-63.6175	284.5226	67.3422	821.8487	-0.0592	0.0182	-0.0073	-0.0462	0.0165	0.9585
14.8699	-0.41873	-3.5647	0.52136	1.2112	-0.62675	-4.0478	-1.1988	748.1801	-61.8914	281.4629	64.6784	809.9441	-0.0592	0.0182	-0.0073	-0.0462	0.0165	0.9585
14.883	-0.43625	-5.6898	0.50292	1.9311	-0.60883	-6.6061	0.82484	740.6411	-60.269	278.5873	62.121	798.2727	-0.0592	0.0182	-0.0073	-0.0462	0.0165	0.9585
14.8961	-0.21346	-7.8148	0.42547	2.6488	-0.43695	-9.1558	3.0146	733.9953	-58.9148	276.104	59.7916	787.4672	-0.0592	0.0182	-0.0073	-0.0462	0.0165	0.9585
14.9091	0.34817	-9.3449	0.25817	3.1628	-0.041653	-10.993	5.5133	728.6855	-57.952	274.161	57.7518	777.967	-0.0592	0.0182	-0.0073	-0.0462	0.0165	0.9585
14.9222	1.3752	-9.3534	-0.049878	3.1552	0.66964	-11.0125	8.4499	724.8987	-57.4559	272.8124	56.0202	769.9579	-0.0592	0.0182	-0.0073	-0.0462	0.0165	0.9585
14.9353	2.9712	-6.5173	-0.529	2.1732	1.7705	-7.6281	11.8723	722.4723	-57.4361	271.983	54.5768	763.2901	-0.0592	0.0182	-0.0073	-0.0462	0.0165	0.9585
14.9484	5.2033	0.87522	-1.2074	-0.37045	3.3169	1.2018	15.7062	720.8586	-57.8423	271.4497	53.3962	757.4592	-0.0592	0.0182	-0.0073	-0.0462	0.0165	0.9585
14.9614	8.0272	14.7883	-2.0711	-5.1512	5.2778	17.8247	19.7469	719.1095	-58.5568	270.8357	52.4427	751.6032	-0.0592	0.0182	-0.0073	-0.0462	0.0165	0.9585
14.9745	11.2049	37.1755	-3.0592	-12.8379	7.4964	44.5727	23.6958	715.8825	-59.3941	269.6182	51.649	744.496	-0.0592	0.0182	-0.0073	-0.0462	0.0165	0.9585
14.9876	14.2078	69.4359	-4.0247	-23.9057	9.6127	83.1168	27.194	709.568	-60.0961	267.1775	50.8968	734.6589	-0.0592	0.0182	-0.0073	-0.0462	0.0165	0.9585
15.0006	16.1004	111.5718	-4.6992	-38.3492	10.9817	133.4736	29.8987	698.5016	-60.3592	262.8805	50.0194	720.5437	-0.0592	0.0182	-0.0073	-0.0462	0.0165	0.9585
15.0137	15.4909	161.0748	-4.6508	-55.2997	10.6156	192.6581	31.51	681.22	-59.8751	256.182	48.8303	700.7743	-0.0592	0.0182	-0.0073	-0.0462	0.0165	0.9585
15.0268	11.4074	212.3718	-3.2547	-72.8145	7.461	254.0592	31.8438	656.8357	-58.4086	246.7682	47.1741	674.4947	-0.0592	0.0182	-0.0073	-0.0462	0.0165	0.9585
15.0399	4.9302	258.9153	0.089234	-88.6067	1.2626	309.8171	30.9375	625.5004	-55.8811	234.7277	44.9732	641.8113	-0.0592	0.0182	-0.0073	-0.0462	0.0165	0.9585
15.0529	-2.2667	297.7602	4.8428	-101.6593	-6.756	356.1919	29.0642	588.5209	-52.4468	220.5817	42.2872	603.9122	-0.0592	0.0182	-0.0073	-0.0462	0.0165	0.9585
15.066	-8.8971	329.9249	10.5693	-112.3048	-15.6341	394.2101	26.6641	547.7582	-48.4666	205.054	39.2989	562.4899	-0.0592	0.0182	-0.0073	-0.0462	0.0165	0.9585
15.0791	-14.2523	357.9059	16.7236	-121.4174	-24.5023	426.8129	24.1928	504.8816	-44.2977	188.7873	36.17	519.0508	-0.0592	0.0182	-0.0073	-0.0462	0.0165	0.9585
15.0921	-18.1891	384.4354	22.9355	-129.9524	-32.8705	457.2628	21.9584	460.9869	-40.1113	172.2047	32.9348	474.5569	-0.0592	0.0182	-0.0073	-0.0462	0.0165	0.9585
15.1052	-20.8764	411.5581	28.7667	-138.641	-40.3003	487.9702	20.0714	416.6634	-35.9082	155.5311	29.5347	429.5218	-0.0592	0.0182	-0.0073	-0.0462	0.0165	0.9585
15.1183	-22.4975	440.3976	34.0111	-147.8903	-46.6148	520.2613	18.5	372.1723	-31.6074	138.8631	25.8919	384.1717	-0.0592	0.0182	-0.0073	-0.0462	0.0165	0.9585
15.1314	-23.2003	471.4541	38.5434	-157.8911	-51.7479	554.7308	17.0546	327.7012	-27.1745	122.2599	22.036	338.7069	-0.0592	0.0182	-0.0073	-0.0462	0.0165	0.9585
15.1444	-23.1299	504.841	42.5204	-168.681	-55.9358	591.5511	15.518	283.5442	-22.6835	105.8168	18.1195	293.4522	-0.0592	0.0182	-0.0073	-0.0462	0.0165	0.9585
15.1575	-22.3746	540.2041	46.0534	-180.154	-59.3642	630.3036	13.6968	240.2838	-18.3091	89.7286	14.3851	249.0502	-0.0592	0.0182	-0.0073	-0.0462	0.0165	0.9585
15.1706	-21.1728	576.7333	49.3615	-192.0475	-62.364	670.103	11.4916	198.7855	-14.2533	74.2979	11.0733	206.4115	-0.0592	0.0182	-0.0073	-0.0462	0.0165	0.9585
15.1836	-19.7449	613.3891	52.5529	-204.0368	-65.1477	709.7254	8.9128	160.1286	-10.6874	59.9132	8.3612	166.6458	-0.0592	0.0182	-0.0073	-0.0462	0.0165	0.9585
15.1967	-18.2941	649.3008	55.678	-215.856	-67.8353	748.1744	6.0862	125.4412	-7.728	46.9876	6.3281	130.9189	-0.0592	0.0182	-0.0073	-0.0462	0.0165	0.9585
15.2098	-16.865	683.7625	58.5028	-227.3103	-70.1923	784.5939	3.2356	95.6012	-5.4149	35.8498	4.9438	100.1221	-0.0592	0.0182	-0.0073	-0.0462	0.0165	0.9585
15.2229	-15.4313	716.0821	60.841	-238.1922	-71.9925	818.1716	0.52686	71.0267	-3.714	26.6606	4.1198	74.6991	-0.0592	0.0182	-0.0073	-0.0462	0.0165	0.9585
15.2359	-13.9293	745.3577	62.5147	-248.2105	-73.0164	847.8703	-1.8817	51.5911	-2.5412	19.3827	3.7224	54.515	-0.0592	0.0182	-0.0073	-0.0462	0.0165	0.9585
15.249	-12.2819	770.5521	63.5512	-256.9985	-73.2602	872.5438	-3.8983	36.7595	-1.7843	13.8216	3.6078	39.0445	-0.0592	0.0182	-0.0073	-0.0462	0.0165	0.9585
15.2621	-10.449	790.6868	63.9965	-264.1892	-72.7645	891.1608	-5.4168	25.7129	-1.3138	9.6758	3.6102	27.4594	-0.0592	0.0182	-0.0073	-0.0462	0.0165	0.9585
15.2751	-8.3988	804.9675	64.0156	-269.4698	-71.7004	902.9412	-6.3195	17.55	-1.0093	6.6114	3.5654	18.8457	-0.0592	0.0182	-0.0073	-0.0462	0.0165	0.9585
15.2882	-6.1646	812.9864	63.6973	-272.6557	-70.1845	907.5545	-6.4965	11.4713	-0.77692	4.3291	3.3363	12.3952	-0.0592	0.0182	-0.0073	-0.0462	0.0165	0.9585
15.3013	-3.7646	814.8162	63.1651	-273.7178	-68.3601	905.1979	-5.9122	6.8739	-0.57062	2.6063	2.8655	7.4886	-0.0592	0.0182	-0.0073	-0.0462	0.0165	0.9585
15.3144	-1.2425	810.9592	62.4468	-272.7851	-66.2823	896.5594	-4.7718	3.4711	-0.38052	1.3339	2.2173	3.8519	-0.0592	0.0182	-0.0073	-0.0462	0.0165	0.9585
15.3274	1.3393	802.2712	61.5965	-270.1177	-64.0363	882.7081	-3.4247	1.143	-0.22825	0.46593	1.5408	1.3595	-0.0592	0.0182	-0.0073	-0.0462	0.0165	0.9585
15.3405	3.8882	789.8835	60.6188	-266.0838	-61.6686	864.9854	-2.1616	-0.27638	-0.1244	-0.06065	0.95065	-0.1581	-0.0592	0.0182	-0.0073	-0.0462	0.0165	0.9585
15.3536	6.2872	775.1254	59.5664	-261.1274	-59.2805	844.9437	-1.12	-1.0124	-0.062519	-0.32942	0.49117	-0.9497	-0.0592	0.0182	-0.0073	-0.0462	0.0165	0.9585
15.3666	8.4496	759.4468	58.4724	-255.7458	-56.9478	824.2095	-0.3348	-1.2711	-0.035119	-0.41898	0.17009	-1.2373	-0.0592	0.0182	-0.0073	-0.0462	0.0165	0.9585
15.3797	10.3148	744.3122	57.4388	-250.4433	-54.8037	804.3842	0.19164	-1.2308	-0.026164	-0.3973	-0.029483	-1.2024	-0.0592	0.0182	-0.0073	-0.0462	0.0165	0.9585
15.3928	11.8819	731.0113	56.5289	-245.6731	-52.9217	786.832	0.51101	-1.0405	-0.024437	-0.31885	-0.13915	-1.0105	-0.0592	0.0182	-0.0073	-0.0462	0.0165	0.9585
15.4059	13.1622	720.5688	55.8227	-241.797	-51.3784	772.6181	0.65933	-0.76959	-0.026351	-0.21232	-0.18483	-0.72218	-0.0592	0.0182	-0.0073	-0.0462	0.0165	0.9585
15.4189	14.1803	713.702	55.3119	-239.0746	-50.1577	762.4441	0.69771	-0.48712	-0.030542	-0.10225	-0.19297	-0.42606	-0.0592	0.0182	-0.0073	-0.0462	0.0165	0.9585
15.432	14.9536	710.7931	54.9852	-237.6493	-49.2357	756.6596	0.64153	-0.22123	-0.030494	-0.0015177	-0.17764	-0.14334	-0.0592	0.0182	-0.0073	-0.0462	0.0165	0.9585
15.4451	15.5386	711.8457	54.7809	-237.5399	-48.5258	755.2042	0.53371	0.0058874	-0.027757	0.080801	-0.14627	0.1009	-0.0592	0.0182	-0.0073	-0.0462	0.0165	0.9585
15.4581	16.0201	716.5378	54.6764	-238.6469	-47.9686	757.674	0.39533	0.17131	-0.023537	0.1362	-0.10126	0.2819	-0.0592	0.0182	-0.0073	-0.0462	0.0165	0.9585
15.4712	16.5082	724.272	54.6244	-240.7704	-47.4765	763.3718	0.2277	0.23628	-0.021303	0.15127	-0.038486	0.35715	-0.0592	0.0182	-0.0073	-0.0462	0.0165	0.9585
15.4843	17.0814	734.2414	54.6189	-243.63	-47.0123	771.4036	0.049474	0.15453	-0.027919	0.10921	0.044901	0.26548	-0.0592	0.0182	-0.0073	-0.0462	0.0165	0.9585
15.4974	17.7905	745.5072	54.6336	-246.8941	-46.532	780.7554	-0.15382	-0.11748	-0.046975	-0.0092717	0.15473	-0.040259	-0.0592	0.0182	-0.0073	-0.0462	0.0165	0.9585
15.5104	18.6542	757.0497	54.6832	-250.1979	-46.0415	790.3552	-0.36851	-0.65913	-0.078405	-0.23382	0.2875	-0.66239	-0.0592	0.0182	-0.0073	-0.0462	0.0165	0.9585
15.5235	19.6566	767.8273	54.7627	-253.1702	-45.5401	799.1346	-0.58405	-1.5157	-0.12368	-0.58677	0.43417	-1.6474	-0.0592	0.0182	-0.0073	-0.0462	0.0165	0.9585
